<mxfile host="app.diagrams.net" modified="2023-12-14T02:34:59.786Z" agent="Mozilla/5.0 (Windows NT 10.0; Win64; x64) AppleWebKit/537.36 (KHTML, like Gecko) Chrome/119.0.0.0 Safari/537.36" etag="ET4dIpj5QdIaL3v-nEsr" version="22.1.8" type="github">
  <diagram name="第 1 页" id="slLrdtFs6SqBykbZLF5b">
    <mxGraphModel dx="1434" dy="750" grid="1" gridSize="10" guides="1" tooltips="1" connect="1" arrows="1" fold="1" page="1" pageScale="1" pageWidth="827" pageHeight="1169" math="0" shadow="0">
      <root>
        <mxCell id="0" />
        <mxCell id="1" parent="0" />
        <mxCell id="ND3srqZQOQVRPDvAp2D--1" value="" style="rounded=1;whiteSpace=wrap;html=1;" vertex="1" parent="1">
          <mxGeometry x="40" y="100" width="330" height="520" as="geometry" />
        </mxCell>
        <mxCell id="ND3srqZQOQVRPDvAp2D--2" value="" style="rounded=1;whiteSpace=wrap;html=1;" vertex="1" parent="1">
          <mxGeometry x="80" y="140" width="250" height="50" as="geometry" />
        </mxCell>
        <mxCell id="ND3srqZQOQVRPDvAp2D--3" value="" style="rounded=1;whiteSpace=wrap;html=1;" vertex="1" parent="1">
          <mxGeometry x="80" y="190" width="250" height="50" as="geometry" />
        </mxCell>
        <mxCell id="ND3srqZQOQVRPDvAp2D--4" value="" style="rounded=1;whiteSpace=wrap;html=1;" vertex="1" parent="1">
          <mxGeometry x="80" y="240" width="250" height="50" as="geometry" />
        </mxCell>
        <mxCell id="ND3srqZQOQVRPDvAp2D--5" value="" style="rounded=1;whiteSpace=wrap;html=1;" vertex="1" parent="1">
          <mxGeometry x="80" y="290" width="250" height="50" as="geometry" />
        </mxCell>
        <mxCell id="ND3srqZQOQVRPDvAp2D--6" value="" style="rounded=1;whiteSpace=wrap;html=1;" vertex="1" parent="1">
          <mxGeometry x="80" y="340" width="250" height="50" as="geometry" />
        </mxCell>
      </root>
    </mxGraphModel>
  </diagram>
</mxfile>
